# xmcd
# 
# Track frame offsets:
#     150
#     20770
#     36032
#     57214
#     72509
#     90406
#     117222
#     134573
#     152696
#     178787
# 
# Disc length: 2745
# 
# Revision: 12
# Processed by: cddbd v1.5.2PL0 Copyright (c) Steve Scherf et al.
# Submitted via: fre:ac v1.0.31
# 
DISCID=860ab70a
DTITLE=Deep Purple - Infinite
DYEAR=2017
DGENRE=Rock/Pop
TTITLE0=Time For Bedlam
TTITLE1=Hip Boots
TTITLE2=All I Got Is You
TTITLE3=One Night In Vegas
TTITLE4=Get Me Outta Here
TTITLE5=The Surprising
TTITLE6=Johnny's Band
TTITLE7=On Top Of The World
TTITLE8=Birds Of Prey
TTITLE9=Roadhouse Blues
EXTD=YEAR: 2017
EXTT0=
EXTT1=
EXTT2=
EXTT3=
EXTT4=
EXTT5=
EXTT6=
EXTT7=
EXTT8=
EXTT9=
PLAYORDER=
